<svg xmlns="http://www.w3.org/2000/svg" id="prefix__paradas-30px" width="30" height="30" viewBox="0 0 30 30">
    <defs>
        <style>
            .prefix__cls-1{fill:none}.prefix__cls-5{stroke:none}
        </style>
    </defs>
    <path id="prefix__Retângulo_7175" d="M0 0H30V30H0z" class="prefix__cls-1" data-name="Retângulo 7175"/>
    <g id="prefix__Caminho_656" fill="none" data-name="Caminho 656">
        <path d="M12.366 2.238c11.7-.95 12.869-4.994 12.419-1.008S18.409 8.9 11.551 9.456-.5 7.232-.053 3.246s.716-.058 12.419-1.008z" class="prefix__cls-5" transform="rotate(14.98 -46.34 21.09)"/>
        <path fill="#424242" d="M22.329 2.3c-1.988.682-5.087 1.549-9.801 1.931-1.31.107-2.572.16-3.751.16-3.393 0-5.522-.435-6.856-.74-.018.571.192 1.093.637 1.591 1.259 1.41 4.044 2.285 7.268 2.285.51 0 1.037-.021 1.563-.064 3.006-.244 5.892-1.143 8.126-2.532 1.307-.812 2.276-1.726 2.814-2.63m2.106-2.796c.473 0 .493.455.35 1.725-.45 3.987-6.376 7.67-13.234 8.226-.588.048-1.164.071-1.725.071-5.984 0-10.29-2.636-9.879-6.281C.105 1.843.241 1.42.86 1.42c.94 0 2.99.971 7.917.971 1.058 0 2.248-.044 3.589-.153C20.342 1.59 23.423-.494 24.435-.495z" transform="rotate(14.98 -46.34 21.09)"/>
    </g>
    <g id="prefix__Elipse_332" fill="none" stroke="#424242" stroke-width="2px" data-name="Elipse 332" transform="translate(8 10)">
        <circle cx="3" cy="3" r="3" class="prefix__cls-5"/>
        <circle cx="3" cy="3" r="2" class="prefix__cls-1"/>
    </g>
    <path id="prefix__Caminho_658" fill="none" stroke="#424242" stroke-linecap="round" stroke-linejoin="round" stroke-width="2px" d="M-13188.877-15927.006v-16.27l12.055-6.855 11.887 6.855v16.27" data-name="Caminho 658" transform="translate(13192 15953)"/>
</svg>
