<svg xmlns="http://www.w3.org/2000/svg" id="prefix__perfil-pontos-24px" width="24" height="24" viewBox="0 0 24 24">
    <path id="prefix__Caminho_683" fill="#fc0" d="M10 0A10 10 0 1 1 0 10 10 10 0 0 1 10 0z" data-name="Caminho 683" transform="translate(2 2)"/>
    <path id="prefix__Retângulo_7198" fill="none" d="M0 0H24V24H0z" data-name="Retângulo 7198"/>
    <path id="prefix__Caminho_682" fill="#424242" d="M-182.282-72.584a2.459 2.459 0 0 0-.647-.8 4.12 4.12 0 0 0-.974-.582 13.116 13.116 0 0 0-1.509-.524 3.764 3.764 0 0 1-1.2-.531.651.651 0 0 1-.25-.535v-.031a.7.7 0 0 1 .257-.582 1.416 1.416 0 0 1 .871-.239h.037a1.152 1.152 0 0 1 .857.321 1.268 1.268 0 0 1 .318.909.334.334 0 0 0 .091.248.334.334 0 0 0 .243.1h1.754a.334.334 0 0 0 .334-.32 2.916 2.916 0 0 0-.78-2.1l-.012-.013a3.452 3.452 0 0 0-1.851-.918v-.987a.334.334 0 0 0-.334-.334h-1.162a.334.334 0 0 0-.334.334v.967a3.809 3.809 0 0 0-1.865.788 2.321 2.321 0 0 0-.855 1.865 2.667 2.667 0 0 0 1.917 2.463 12.15 12.15 0 0 0 1.459.491 3.365 3.365 0 0 1 1.182.527.688.688 0 0 1 .257.545v.013a.674.674 0 0 1-.284.566 1.744 1.744 0 0 1-1.053.266h-.043a1.585 1.585 0 0 1-1.071-.323 1.092 1.092 0 0 1-.344-.863.335.335 0 0 0-.091-.249.335.335 0 0 0-.243-.1h-1.766a.334.334 0 0 0-.334.321 2.712 2.712 0 0 0 .883 2.116l.014.012a4.056 4.056 0 0 0 2.089.88v.822a.334.334 0 0 0 .334.334h1.155a.334.334 0 0 0 .334-.334v-.827a4.068 4.068 0 0 0 1.967-.772 2.31 2.31 0 0 0 .88-1.85 2.374 2.374 0 0 0-.231-1.074z" data-name="Caminho 682" transform="translate(197.709 85.5)"/>
</svg>
