<svg xmlns="http://www.w3.org/2000/svg" id="prefix__perfil-histórico-24px" width="24" height="24" viewBox="0 0 24 24">
    <defs>
        <style>
            .prefix__cls-1,.prefix__cls-4{fill:none}.prefix__cls-2{fill:#fc0}.prefix__cls-4{stroke:#424242}.prefix__cls-5{stroke:none}
        </style>
    </defs>
    <path id="prefix__Retângulo_7202" d="M0 0H24V24H0z" class="prefix__cls-1" data-name="Retângulo 7202"/>
    <rect id="prefix__Retângulo_7211" width="16" height="18" class="prefix__cls-2" data-name="Retângulo 7211" rx="1" transform="translate(4 3)"/>
    <circle id="prefix__Elipse_720" cx="6.5" cy="6.5" r="6.5" fill="#424242" data-name="Elipse 720" transform="translate(10 9)"/>
    <g id="prefix__Retângulo_7205" class="prefix__cls-4" data-name="Retângulo 7205" transform="translate(6 6)">
        <rect width="12" height="2" class="prefix__cls-5" rx="1"/>
        <rect width="11" height="1" x=".5" y=".5" class="prefix__cls-1" rx=".5"/>
    </g>
    <g id="prefix__Retângulo_7206" class="prefix__cls-4" data-name="Retângulo 7206" transform="translate(6 10)">
        <rect width="8" height="2" class="prefix__cls-5" rx="1"/>
        <rect width="7" height="1" x=".5" y=".5" class="prefix__cls-1" rx=".5"/>
    </g>
    <g id="prefix__Retângulo_7207" class="prefix__cls-4" data-name="Retângulo 7207" transform="translate(6 14)">
        <rect width="5" height="2" class="prefix__cls-5" rx="1"/>
        <rect width="4" height="1" x=".5" y=".5" class="prefix__cls-1" rx=".5"/>
    </g>
    <g id="prefix__Caminho_3191" data-name="Caminho 3191" transform="translate(15.508 12.395)">
        <path id="prefix__Caminho_3199" d="M111.4 65.857h-2.27a.8.8 0 0 1-.8-.8v-2.592a.8.8 0 1 1 1.6 0v1.792h1.47a.8.8 0 0 1 0 1.6z" class="prefix__cls-2" data-name="Caminho 3199" transform="translate(-108.33 -61.664)"/>
    </g>
</svg>
