<svg id="serviços-30px" xmlns="http://www.w3.org/2000/svg" width="30" height="30" viewBox="0 0 30 30">
  <rect id="Retângulo_7170" data-name="Retângulo 7170" width="30" height="30" fill="none"/>
  <g id="Grupo_215" data-name="Grupo 215" transform="translate(0.001)">
    <path id="Caminho_68" data-name="Caminho 68" d="M317.9,552.9h30v30h-30Z" transform="translate(-317.9 -552.9)" fill="none"/>
    <path id="Caminho_69" data-name="Caminho 69" d="M333.1,561.66a4.938,4.938,0,0,0-4.94,4.94c0,3.9,4.94,8.45,4.94,8.45s4.94-4.55,4.94-8.45A4.938,4.938,0,0,0,333.1,561.66Zm0,6.89a1.95,1.95,0,1,1,1.95-1.95A1.914,1.914,0,0,1,333.1,568.549Zm0-13.649a13,13,0,1,0,13,13A13.038,13.038,0,0,0,333.1,554.9Zm0,23.4a10.4,10.4,0,1,1,10.4-10.4A10.43,10.43,0,0,1,333.1,578.3Z" transform="translate(-317.9 -552.9)" fill="#7d7d7d"/>
  </g>
</svg>
